<svg width="42" height="42" viewBox="0 0 42 42" fill="none" xmlns="http://www.w3.org/2000/svg">
<path d="M39.6663 21.395H39.6023L36.5445 21.3418C36.342 29.7502 29.4592 36.5088 20.9995 36.5088C19.1562 36.5088 17.3982 36.1895 15.7574 35.6041L14.2871 40.9578C14.8411 41.1494 15.4058 41.3091 15.9705 41.4581C16.6844 41.639 17.4089 41.7774 18.1441 41.8838V41.8625H18.1547L18.7407 39.489C19.4652 39.5742 20.2004 39.6274 20.9462 39.6274C21.3617 39.6274 21.7666 39.6168 22.1715 39.5955L22.6083 41.9158L22.619 42.0009C23.3541 41.9477 24.0893 41.8519 24.8138 41.7135C25.5383 41.5752 26.2628 41.4049 26.966 41.2027L26.9554 41.1707L26.5185 38.8079C27.616 38.4673 28.6708 38.0309 29.6723 37.5093L31.0254 39.4678L31.0467 39.5103L31.068 39.489C31.7073 39.1378 32.3253 38.7653 32.9219 38.3502C33.5292 37.9351 34.1152 37.4774 34.6799 36.9984L34.6906 36.9878L33.3162 34.9975C34.1685 34.2418 34.957 33.4222 35.6602 32.5282L37.6632 33.7415L37.7058 33.7735C38.1533 33.1881 38.5688 32.5814 38.9524 31.9428C39.336 31.3148 39.6876 30.6655 39.9966 29.995L39.9646 29.9844L37.9509 28.7603C38.4197 27.7279 38.8032 26.6529 39.0909 25.5354L41.4456 25.8227C41.616 25.099 41.7439 24.3752 41.8398 23.6408C41.9357 22.9064 41.9783 22.172 41.9996 21.4376L39.6663 21.395Z" fill="#B5C7D8"/>
<path d="M21.0001 5.42821C22.8327 5.42821 24.5907 5.74752 26.2209 6.32227L28.0854 1.1495C27.3929 0.904702 26.679 0.691831 25.9651 0.51089C25.2513 0.340594 24.5161 0.202227 23.7916 0.0957919V0.117079H23.781L23.2056 2.49059C22.4811 2.40544 21.7459 2.36287 21.0001 2.36287C20.5846 2.36287 20.1797 2.37351 19.7749 2.40544L19.3274 0.0851484L19.3061 0C18.5709 0.0638613 17.8357 0.159653 17.1112 0.298019C16.3867 0.436385 15.6622 0.606682 14.959 0.819553L14.9696 0.851484L15.4171 3.21435C14.3197 3.55494 13.2649 4.00197 12.2634 4.52351L10.8996 2.57574L10.8783 2.53316L10.857 2.55445C10.2177 2.90569 9.59975 3.28886 9.0031 3.70395C8.39579 4.1297 7.80979 4.57673 7.25575 5.06633H7.2451L8.63019 7.04603C7.77782 7.80172 7.00004 8.63192 6.29684 9.52597L4.28313 8.32325L4.24051 8.29132C3.79302 8.87672 3.37749 9.49404 3.00458 10.122C2.62102 10.75 2.28007 11.4099 1.96044 12.0804L1.9924 12.0911L4.00611 13.3044C3.53731 14.3369 3.15375 15.4119 2.88738 16.5401L0.532728 16.2633C0.372909 16.9871 0.245055 17.7109 0.149164 18.4453C0.0639273 19.1371 0.0213091 19.8289 0 20.5208L5.41251 20.723H5.45513C5.58299 12.2507 12.4871 5.42821 21.0001 5.42821Z" fill="#B5C7D8"/>
<path d="M16.5889 26.1729L17.8994 20.0103L20.0516 25.5875H21.8948L24.047 20.0103L25.2936 26.1623L27.6483 26.7264H27.6802L24.9846 14.2734H23.7594L20.9679 22.6606L18.1125 14.2734H16.8765L14.2129 26.7264H14.2981L16.5889 26.1729Z" fill="white"/>
<path d="M10.3887 19.5221L16.4298 20.9377C16.4512 20.2565 16.6216 19.6179 16.9093 19.0431L10.8255 17.6169C12.2319 13.3488 16.2594 10.2622 21.0007 10.2622C24.1118 10.2622 26.9139 11.5927 28.8744 13.7001L28.9916 13.8278C29.6841 14.5941 30.2595 15.4669 30.707 16.4035L31.4634 12.1461L31.4528 12.1568L31.6765 10.9115L30.1955 12.0929C27.8728 9.6981 24.6232 8.20801 21.0113 8.20801C14.6186 8.20801 9.3126 12.9018 8.375 19.0219L8.99296 19.1709L9.51504 19.2986L10.3887 19.5221C10.3887 19.5221 10.3887 19.5327 10.3887 19.5221Z" fill="white"/>
<path d="M33.6159 22.9599L31.5915 22.4703C31.5915 22.4809 31.5915 22.4809 31.5915 22.4916L25.4651 21.0547C25.4651 21.0653 25.4651 21.076 25.4651 21.076C25.4651 21.7465 25.316 22.3851 25.0496 22.9599L31.1334 24.3861C29.7057 28.6116 25.6995 31.6663 20.9902 31.6663C16.6751 31.6663 12.9674 29.1225 11.2626 25.4505L10.3037 30.9958L10.3144 30.9851L10.3037 31.049L11.7847 29.8675C14.1074 32.2623 17.357 33.7524 20.9583 33.7631C26.6691 33.7631 31.5169 30.0272 33.1577 24.8651H33.179L33.2536 24.5351C33.3708 24.12 33.4667 23.7049 33.552 23.2792L33.6265 22.9599H33.6159Z" fill="white"/>
</svg>
